<svg width="24" height="24" viewBox="0 0 24 24" fill="none" xmlns="http://www.w3.org/2000/svg">
<path d="M12.5 13.45C14.0533 13.45 15.3125 12.174 15.3125 10.6C15.3125 9.02599 14.0533 7.75 12.5 7.75C10.9467 7.75 9.6875 9.02599 9.6875 10.6C9.6875 12.174 10.9467 13.45 12.5 13.45Z" fill="url(#paint0_linear_6669_18336)"/>
<path d="M12.1436 21.6399C12.3399 21.8377 12.6601 21.8377 12.8564 21.6399C16.4839 17.9835 20 14.6643 20 10.6C20 6.40264 16.6421 3 12.5 3C8.35786 3 5 6.40264 5 10.6C5 14.6643 8.51608 17.9835 12.1436 21.6399Z" fill="url(#paint1_linear_6669_18336)"/>
<path d="M12.5 13.45C14.0533 13.45 15.3125 12.174 15.3125 10.6C15.3125 9.02599 14.0533 7.75 12.5 7.75C10.9467 7.75 9.6875 9.02599 9.6875 10.6C9.6875 12.174 10.9467 13.45 12.5 13.45Z" stroke="#262626" stroke-width="1.4"/>
<path d="M12.1436 21.6399C12.3399 21.8377 12.6601 21.8377 12.8564 21.6399C16.4839 17.9835 20 14.6643 20 10.6C20 6.40264 16.6421 3 12.5 3C8.35786 3 5 6.40264 5 10.6C5 14.6643 8.51608 17.9835 12.1436 21.6399Z" stroke="#262626" stroke-width="1.4"/>
<defs>
<linearGradient id="paint0_linear_6669_18336" x1="5" y1="12.5" x2="20" y2="12.5" gradientUnits="userSpaceOnUse">
<stop stop-color="#DDEDEB" stop-opacity="0"/>
<stop offset="1" stop-color="#DDEDEB"/>
</linearGradient>
<linearGradient id="paint1_linear_6669_18336" x1="5" y1="12.5" x2="20" y2="12.5" gradientUnits="userSpaceOnUse">
<stop stop-color="#DDEDEB" stop-opacity="0"/>
<stop offset="1" stop-color="#DDEDEB"/>
</linearGradient>
</defs>
</svg>
