<svg width="24" height="18" viewBox="0 0 24 18" fill="none" xmlns="http://www.w3.org/2000/svg">
<path d="M19.5382 0.832273H4.46492C3.22347 0.832273 2.66797 0.832031 2.12857 0.832138C1.81097 0.832084 1.65418 0.832057 1.5011 0.83207C1.17914 0.832097 0.918165 1.09299 0.918145 1.41495C0.918116 1.89336 0.918251 2.49562 0.918251 3.39894V4.33227C0.918251 4.65444 1.1811 4.9108 1.49931 4.96111C3.36608 5.25627 4.79742 6.95165 4.79742 8.99894C4.79742 11.0462 3.36608 12.7416 1.49931 13.0368C1.1811 13.0871 0.918251 13.3434 0.918251 13.6656V14.5989C0.918251 15.4095 0.918345 16.1091 0.91829 16.5812C0.918253 16.9039 1.17986 17.1656 1.50253 17.1656C1.68038 17.1656 1.88251 17.1656 2.08464 17.1656C2.66797 17.1656 3.22347 17.1656 4.46492 17.1656H19.5382C20.7797 17.1656 20.168 17.1656 20.7513 17.1656C21.1756 17.1656 21.9085 17.1656 22.5012 17.1657C22.8236 17.1658 23.0848 16.9045 23.0848 16.5821C23.0848 16.1037 23.0849 15.5017 23.0849 14.5989V13.6656C23.0849 13.3434 22.8221 13.0871 22.5038 13.0368C20.6371 12.7416 19.2057 11.0462 19.2057 8.99894C19.2057 6.95165 20.6371 5.25627 22.5038 4.96111C22.8221 4.9108 23.0849 4.65444 23.0849 4.33227V3.39894C23.0849 2.49598 23.0848 1.89362 23.0847 1.41525C23.0846 1.0931 22.824 0.832028 22.5019 0.832051C21.7146 0.832109 20.4864 0.832273 19.5382 0.832273Z" fill="url(#paint0_linear_6400_15185)"/>
<path d="M10.3687 5.49915V4.33248M10.3687 9.58248V8.41582M10.3687 13.6658V12.4991M4.46492 0.832273H19.5382C20.4864 0.832273 21.7146 0.832109 22.5019 0.832051C22.824 0.832028 23.0846 1.0931 23.0847 1.41525C23.0848 1.89362 23.0849 2.49598 23.0849 3.39894V4.33227C23.0849 4.65444 22.8221 4.9108 22.5038 4.96111C20.6371 5.25627 19.2057 6.95165 19.2057 8.99894C19.2057 11.0462 20.6371 12.7416 22.5038 13.0368C22.8221 13.0871 23.0849 13.3434 23.0849 13.6656V14.5989C23.0849 15.5017 23.0848 16.1037 23.0848 16.5821C23.0848 16.9045 22.8236 17.1658 22.5012 17.1657C21.9085 17.1656 21.1756 17.1656 20.7513 17.1656C20.168 17.1656 20.7797 17.1656 19.5382 17.1656H4.46492C3.22347 17.1656 2.66797 17.1656 2.08464 17.1656C1.88251 17.1656 1.68038 17.1656 1.50253 17.1656C1.17986 17.1656 0.918253 16.9039 0.91829 16.5812C0.918345 16.1091 0.918251 15.4095 0.918251 14.5989V13.6656C0.918251 13.3434 1.1811 13.0871 1.49931 13.0368C3.36608 12.7416 4.79742 11.0462 4.79742 8.99894C4.79742 6.95165 3.36608 5.25627 1.49931 4.96111C1.1811 4.9108 0.918251 4.65444 0.918251 4.33227V3.39894C0.918251 2.49562 0.918116 1.89336 0.918145 1.41495C0.918165 1.09299 1.17914 0.832097 1.5011 0.83207C1.65418 0.832057 1.81097 0.832084 2.12857 0.832138C2.66797 0.832031 3.22347 0.832273 4.46492 0.832273Z" stroke="#262626" stroke-width="1.63333" stroke-linecap="square"/>
<defs>
<linearGradient id="paint0_linear_6400_15185" x1="1.5013" y1="8.9987" x2="23.668" y2="8.9987" gradientUnits="userSpaceOnUse">
<stop stop-color="#DDEDEB" stop-opacity="0"/>
<stop offset="1" stop-color="#DDEDEB"/>
</linearGradient>
</defs>
</svg>
