<svg width="17" height="16" viewBox="0 0 17 16" fill="none" xmlns="http://www.w3.org/2000/svg">
<path d="M6.40492 0.979997L3.76492 12.08L3.28492 9.5C4.24492 9.5 5.02492 9.8 5.62492 10.4C6.22492 10.96 6.52492 11.72 6.52492 12.68C6.52492 13.64 6.22492 14.42 5.62492 15.02C5.02492 15.62 4.28492 15.92 3.40492 15.92C2.44492 15.92 1.66492 15.62 1.06492 15.02C0.504922 14.38 0.224922 13.6 0.224922 12.68C0.224922 12.32 0.244922 12 0.284922 11.72C0.324922 11.44 0.404922 11.1 0.524922 10.7C0.644922 10.3 0.804922 9.82 1.00492 9.26L3.52492 0.979997H6.40492ZM16.6049 0.979997L13.9649 12.08L13.4849 9.5C14.4449 9.5 15.2249 9.8 15.8249 10.4C16.4249 10.96 16.7249 11.72 16.7249 12.68C16.7249 13.64 16.4249 14.42 15.8249 15.02C15.2249 15.62 14.4849 15.92 13.6049 15.92C12.6449 15.92 11.8649 15.62 11.2649 15.02C10.7049 14.38 10.4249 13.6 10.4249 12.68C10.4249 12.32 10.4449 12 10.4849 11.72C10.5249 11.44 10.6049 11.1 10.7249 10.7C10.8449 10.3 11.0049 9.82 11.2049 9.26L13.7249 0.979997H16.6049Z" fill="#262626"/>
</svg>
