<svg width="24" height="24" viewBox="0 0 24 24" fill="none" xmlns="http://www.w3.org/2000/svg">
<path d="M16.0167 20.8605C17.6311 20.8605 18.4382 20.8605 19.034 20.538C19.5575 20.2546 19.9714 19.8047 20.2104 19.2595C20.4823 18.639 20.4153 17.8346 20.2812 16.2258L19.6572 10.5201C19.5418 9.13595 19.4841 8.44385 19.1776 7.92002C18.9077 7.45873 18.5057 7.0889 18.0236 6.85821C17.4762 6.59625 16.9767 6.59637 15.5877 6.59637L9.1985 6.59637C7.80951 6.59637 6.91994 6.59624 6.37246 6.85821C5.89035 7.0889 5.48842 7.45873 5.21849 7.92002C4.91196 8.44385 4.85429 9.13595 4.73894 10.5201L4.11488 16.2258C3.98082 17.8346 3.91378 18.639 4.18572 19.2595C4.42465 19.8047 4.83862 20.2546 5.36208 20.538C5.95787 20.8605 6.76503 20.8605 8.37937 20.8605H16.0167Z" fill="url(#paint0_linear_6669_18333)"/>
<path d="M15.7641 5.70473C15.7641 4.75895 15.3884 3.85191 14.7196 3.18315C14.0509 2.51438 13.1438 2.13867 12.198 2.13867C11.2523 2.13867 10.3452 2.51438 9.67646 3.18315C9.0077 3.85191 8.63199 4.75895 8.63199 5.70473" fill="url(#paint1_linear_6669_18333)"/>
<path d="M15.7641 8.82503V5.70473C15.7641 4.75895 15.3884 3.85191 14.7196 3.18315C14.0509 2.51438 13.1438 2.13867 12.198 2.13867C11.2523 2.13867 10.3452 2.51438 9.67646 3.18315C9.0077 3.85191 8.63199 4.75895 8.63199 5.70473V8.82503M4.73894 10.5201L4.11488 16.2258C3.98082 17.8346 3.91378 18.639 4.18572 19.2595C4.42465 19.8047 4.83862 20.2546 5.36208 20.538C5.95787 20.8605 6.76503 20.8605 8.37937 20.8605H16.0167C17.6311 20.8605 18.4382 20.8605 19.034 20.538C19.5575 20.2546 19.9714 19.8047 20.2104 19.2595C20.4823 18.639 20.4153 17.8346 20.2812 16.2258L19.6572 10.5201C19.5418 9.13595 19.4841 8.44385 19.1776 7.92002C18.9077 7.45873 18.5057 7.0889 18.0236 6.85821C17.4762 6.59625 16.9767 6.59637 15.5877 6.59637L9.1985 6.59637C7.80951 6.59637 6.91994 6.59624 6.37246 6.85821C5.89035 7.0889 5.48842 7.45873 5.21849 7.92002C4.91196 8.44385 4.85429 9.13595 4.73894 10.5201Z" stroke="#262626" stroke-width="1.4"/>
<defs>
<linearGradient id="paint0_linear_6669_18333" x1="20.398" y1="11.4996" x2="3.99805" y2="11.4996" gradientUnits="userSpaceOnUse">
<stop stop-color="#DDEDEB"/>
<stop offset="1" stop-color="#DDEDEB" stop-opacity="0"/>
</linearGradient>
<linearGradient id="paint1_linear_6669_18333" x1="20.398" y1="11.4996" x2="3.99805" y2="11.4996" gradientUnits="userSpaceOnUse">
<stop stop-color="#DDEDEB"/>
<stop offset="1" stop-color="#DDEDEB" stop-opacity="0"/>
</linearGradient>
</defs>
</svg>
