<svg width="24" height="24" viewBox="0 0 24 24" fill="none" xmlns="http://www.w3.org/2000/svg">
<path fill-rule="evenodd" clip-rule="evenodd" d="M3 11.5V17H6C6 18.1046 6.89543 19 8 19C9.10457 19 10 18.1046 10 17H15H16.5C16.5 18.1046 17.3954 19 18.5 19C19.6046 19 20.5 18.1046 20.5 17H23V13.5L21 9H15V6H3V11.5Z" fill="url(#paint0_linear_6669_18234)"/>
<path d="M8 19C9.10457 19 10 18.1046 10 17C10 15.8954 9.10457 15 8 15C6.89543 15 6 15.8954 6 17C6 18.1046 6.89543 19 8 19Z" stroke="#262626" stroke-width="1.4" stroke-miterlimit="1.5" stroke-linecap="round" stroke-linejoin="round"/>
<path d="M18.5 19C19.6046 19 20.5 18.1046 20.5 17C20.5 15.8954 19.6046 15 18.5 15C17.3954 15 16.5 15.8954 16.5 17C16.5 18.1046 17.3954 19 18.5 19Z" stroke="#262626" stroke-width="1.4" stroke-miterlimit="1.5" stroke-linecap="round" stroke-linejoin="round"/>
<path d="M10.05 17H14.5C14.7761 17 15 16.7761 15 16.5V6.5C15 6.22386 14.7761 6 14.5 6H1" stroke="#262626" stroke-width="1.4" stroke-linecap="square"/>
<path d="M5.65 17H3.5C3.22386 17 3 16.7761 3 16.5V11.5" stroke="#262626" stroke-width="1.4" stroke-linecap="square"/>
<path d="M2 9L6 9" stroke="#262626" stroke-width="1.4" stroke-linecap="square" stroke-linejoin="round"/>
<path d="M15 9H20.6751C20.8727 9 21.0517 9.11637 21.132 9.29693L22.9569 13.403C22.9853 13.467 23 13.5361 23 13.6061V16.5C23 16.7761 22.7761 17 22.5 17H20.5" stroke="#262626" stroke-width="1.4" stroke-linecap="square"/>
<path d="M15 17H16" stroke="#262626" stroke-width="1.4" stroke-linecap="round"/>
<defs>
<linearGradient id="paint0_linear_6669_18234" x1="23" y1="12.5" x2="3" y2="12.5" gradientUnits="userSpaceOnUse">
<stop stop-color="#DDEDEB"/>
<stop offset="1" stop-color="#DDEDEB" stop-opacity="0"/>
</linearGradient>
</defs>
</svg>
