<svg width="24" height="24" viewBox="0 0 24 24" fill="none" xmlns="http://www.w3.org/2000/svg">
<path d="M7.66001 9.92284C8.3189 11.2952 9.21711 12.5814 10.3546 13.7189C11.4921 14.8564 12.7784 15.7546 14.1507 16.4135C14.2687 16.4702 14.3278 16.4985 14.4024 16.5203C14.6678 16.5977 14.9938 16.5421 15.2185 16.3812C15.2818 16.3359 15.3359 16.2818 15.4441 16.1735C15.7751 15.8426 15.9406 15.6771 16.107 15.5689C16.7345 15.1609 17.5435 15.1609 18.1711 15.5689C18.3375 15.6771 18.503 15.8426 18.8339 16.1735L19.0184 16.358C19.5215 16.8611 19.7731 17.1127 19.9097 17.3828C20.1815 17.9202 20.1815 18.5547 19.9097 19.092C19.7731 19.3622 19.5215 19.6137 19.0184 20.1168L18.8692 20.2661C18.3678 20.7674 18.1171 21.0181 17.7763 21.2096C17.3981 21.4221 16.8107 21.5748 16.3769 21.5735C15.9859 21.5724 15.7188 21.4965 15.1844 21.3449C12.3127 20.5298 9.60295 18.9919 7.34228 16.7312C5.08161 14.4706 3.54374 11.7608 2.72867 8.88913C2.577 8.35478 2.50117 8.0876 2.50001 7.69667C2.49872 7.26288 2.65148 6.67547 2.86393 6.29726C3.0554 5.95642 3.30609 5.70573 3.80748 5.20434L3.95671 5.05511C4.45982 4.552 4.71138 4.30044 4.98154 4.16379C5.51885 3.89203 6.15338 3.89203 6.69068 4.16379C6.96085 4.30044 7.2124 4.552 7.71551 5.05511L7.89999 5.23959C8.23096 5.57056 8.39644 5.73604 8.50464 5.90245C8.91265 6.53 8.91266 7.33902 8.50464 7.96657C8.39644 8.13298 8.23096 8.29846 7.89999 8.62943C7.79178 8.73765 7.73767 8.79175 7.69238 8.855C7.53143 9.07978 7.47586 9.40568 7.55322 9.67109C7.57499 9.74578 7.60333 9.8048 7.66001 9.92284Z" fill="url(#paint0_linear_6669_18252)"/>
<path d="M13.9738 6.27503C14.8985 6.45544 15.7483 6.90766 16.4145 7.57383C17.0806 8.23999 17.5328 9.08979 17.7132 10.0145M13.9738 2.48828C15.8949 2.7017 17.6864 3.56199 19.054 4.9279C20.4216 6.29382 21.2842 8.08416 21.5 10.005M10.3546 13.7189C9.21711 12.5814 8.3189 11.2952 7.66001 9.92284C7.60333 9.8048 7.57499 9.74578 7.55322 9.67109C7.47586 9.40568 7.53143 9.07978 7.69238 8.855C7.73767 8.79175 7.79178 8.73765 7.89999 8.62943C8.23096 8.29846 8.39644 8.13298 8.50464 7.96657C8.91266 7.33902 8.91265 6.53 8.50464 5.90245C8.39644 5.73604 8.23096 5.57056 7.89999 5.23959L7.71551 5.05511C7.2124 4.552 6.96085 4.30044 6.69068 4.16379C6.15338 3.89203 5.51885 3.89203 4.98154 4.16379C4.71138 4.30044 4.45982 4.552 3.95671 5.05511L3.80748 5.20434C3.30609 5.70573 3.0554 5.95642 2.86393 6.29726C2.65148 6.67546 2.49872 7.26288 2.50001 7.69667C2.50117 8.0876 2.577 8.35478 2.72867 8.88913C3.54374 11.7608 5.08161 14.4706 7.34228 16.7312C9.60295 18.9919 12.3127 20.5298 15.1844 21.3449C15.7188 21.4965 15.9859 21.5724 16.3769 21.5735C16.8107 21.5748 17.3981 21.4221 17.7763 21.2096C18.1171 21.0181 18.3678 20.7674 18.8692 20.2661L19.0184 20.1168C19.5215 19.6137 19.7731 19.3622 19.9097 19.092C20.1815 18.5547 20.1815 17.9202 19.9097 17.3828C19.7731 17.1127 19.5215 16.8611 19.0184 16.358L18.8339 16.1735C18.503 15.8426 18.3375 15.6771 18.1711 15.5689C17.5435 15.1609 16.7345 15.1609 16.107 15.5689C15.9406 15.6771 15.7751 15.8426 15.4441 16.1735C15.3359 16.2818 15.2818 16.3359 15.2185 16.3812C14.9938 16.5421 14.6678 16.5977 14.4024 16.5203C14.3278 16.4985 14.2687 16.4702 14.1507 16.4135C12.7784 15.7546 11.4921 14.8564 10.3546 13.7189Z" stroke="#262626" stroke-width="1.4"/>
<defs>
<linearGradient id="paint0_linear_6669_18252" x1="2.5" y1="12.0309" x2="21.5" y2="12.0309" gradientUnits="userSpaceOnUse">
<stop stop-color="#DDEDEB" stop-opacity="0"/>
<stop offset="1" stop-color="#DDEDEB"/>
</linearGradient>
</defs>
</svg>
